<svg width="20" height="20" viewBox="0 0 20 20" fill="none" xmlns="http://www.w3.org/2000/svg">
<path d="M14.9993 17H5.00071C4.44904 17 4 16.5502 4 15.9976V4.00245C4 3.44982 4.44904 3 5.00071 3H7.42124C7.68211 3 7.89166 3.20991 7.89166 3.47124V4.22093C7.89166 4.25092 7.91732 4.28091 7.95153 4.28091H12.0485C12.0784 4.28091 12.1083 4.2552 12.1083 4.22093V3.47124C12.1083 3.20991 12.3179 3 12.5788 3H14.9993C15.551 3 16 3.44982 16 4.00245V16.0018C15.9957 16.5545 15.551 17 14.9993 17ZM5.00071 3.94247C4.97078 3.94247 4.94084 3.96818 4.94084 4.00245V16.0018C4.94084 16.0318 4.9665 16.0618 5.00071 16.0618H14.9993C15.0292 16.0618 15.0592 16.0361 15.0592 16.0018V4.00245C15.0592 3.97246 15.0335 3.94247 14.9993 3.94247H13.0492V4.22093C13.0492 4.77356 12.6001 5.22338 12.0485 5.22338H7.95153C7.39986 5.22338 6.95082 4.77356 6.95082 4.22093V3.94247H5.00071Z" fill="black" stroke="black" stroke-width="0.2"/>
<path d="M13.4969 8.08744H6.49858C6.2221 8.08744 6 7.89269 6 7.65024C6 7.40779 6.2221 7.21304 6.49858 7.21304H13.5014C13.7779 7.21304 14 7.40779 14 7.65024C14 7.89269 13.7734 8.08744 13.4969 8.08744ZM13.4969 10.5437H6.49858C6.2221 10.5437 6 10.349 6 10.1065C6 9.86407 6.2221 9.66932 6.49858 9.66932H13.5014C13.7779 9.66932 14 9.86407 14 10.1065C14 10.349 13.7734 10.5437 13.4969 10.5437ZM13.4969 13H6.49858C6.2221 13 6 12.8052 6 12.5628C6 12.3203 6.2221 12.1256 6.49858 12.1256H13.5014C13.7779 12.1256 14 12.3203 14 12.5628C14 12.8052 13.7734 13 13.4969 13ZM10.9314 3.8744H9.06402C8.78754 3.8744 8.56544 3.67965 8.56544 3.4372C8.56544 3.19475 8.78754 3 9.06402 3H10.9314C11.2079 3 11.43 3.19475 11.43 3.4372C11.43 3.67965 11.2079 3.8744 10.9314 3.8744Z" fill="black" stroke="black" stroke-width="0.2"/>
</svg>
