<svg width="65" height="61" viewBox="0 0 65 61" fill="none" xmlns="http://www.w3.org/2000/svg">
<path d="M29.4859 14.8387L37.8669 22.3038L51.4868 34.4359L51.4868 59.8984L1.70379e-06 14.4029L29.4859 14.8387Z" fill="#D9D9D9"/>
<path d="M25.1497 18.3903C25.0396 18.7729 24.889 19.1864 24.7055 19.6375L27.439 22.0411L26.9966 22.5443L23.5271 19.4936C22.3174 19.8547 21.3724 20.0358 20.6998 20.0436C21.8566 20.9542 23.0388 21.8207 24.2409 22.6646C24.2768 22.2301 24.3051 21.7889 24.3251 21.3271L24.9767 21.434C24.949 22.7679 24.8636 23.8646 24.7072 24.7391L23.9793 24.6583C24.0593 24.2493 24.1243 23.827 24.1733 23.3775C22.7186 22.3514 21.1777 21.1962 19.5506 19.9119L19.8521 19.3115C19.9179 19.3427 19.9686 19.3607 20.0119 19.3721C20.5723 19.492 21.5566 19.3721 22.9638 18.9983L20.8085 17.1032L21.251 16.6L24.1647 19.1621C24.3087 18.756 24.4179 18.3593 24.4922 17.9719L25.1497 18.3903ZM20.4177 21.1671L20.9434 21.6293C20.1248 22.4542 19.3974 22.9332 18.747 23.0671C18.0468 23.1971 17.1826 23.0896 16.1533 22.7306L16.1918 22.0054C17.1072 22.3575 17.8595 22.4864 18.4561 22.3984C19.0452 22.3039 19.6991 21.8935 20.4177 21.1671ZM21.5468 27.2732L20.3753 26.2431C19.8571 25.7875 19.8263 25.3077 20.2753 24.797L22.2233 22.5816L22.7565 23.0504L20.8877 25.1757C20.6896 25.401 20.7116 25.6334 20.9745 25.8645L21.8531 26.6371C21.9958 26.7626 22.149 26.8307 22.3126 26.8414C22.5252 26.8419 22.9314 26.5466 23.5236 25.9488L23.8872 26.5348C23.1527 27.2339 22.6372 27.5929 22.3484 27.6186C22.0859 27.6142 21.8237 27.5034 21.5468 27.2732ZM33.5381 25.7661L34.0052 26.3101C33.7921 26.5222 33.5715 26.7277 33.3716 26.9247L35.234 28.5623L34.7982 29.058L32.8757 27.3675C32.6475 27.5664 32.4185 27.7512 32.2036 27.935L33.7281 29.2755L29.9378 33.5861L30.6512 34.2134L30.2154 34.7091L25.2965 30.3839L25.7323 29.8883L26.5058 30.5684L30.2961 26.2578L31.6704 27.4662C31.8919 27.2748 32.121 27.0901 32.3425 26.8987L30.42 25.2083L30.8558 24.7126L32.8309 26.4493C33.0713 26.2213 33.3118 25.9933 33.5381 25.7661ZM27.024 31.024L29.4196 33.1305L30.0007 32.4696L27.6051 30.3632L27.024 31.024ZM27.9881 29.9276L30.3837 32.0341L30.9383 31.4032L28.5427 29.2968L27.9881 29.9276ZM28.9257 28.8612L31.3213 30.9677L31.8628 30.3519L29.4672 28.2454L28.9257 28.8612ZM29.8502 27.8099L32.2458 29.9163L32.7807 29.308L30.3851 27.2016L29.8502 27.8099ZM28.0112 25.4338C27.4125 25.5998 26.8111 25.7235 26.1994 25.7982L26.521 25.069C28.0503 24.829 29.4956 24.2756 30.843 23.4097L31.133 24.0642C30.5536 24.4203 29.9565 24.7208 29.3491 24.9724L24.7004 30.2592L24.1747 29.797L28.0112 25.4338ZM38.1192 30.1272L38.4506 30.7649C38.0267 31.0046 37.6076 31.2087 37.2008 31.3836L38.7178 32.7175L39.8733 31.4033L40.4291 31.8919L39.2735 33.2061L41.7893 35.4182L41.327 35.9439L38.8113 33.7318L38.382 34.22C38.0501 34.5672 37.7229 34.8788 37.393 35.1479L40.4945 37.8751L40.0389 38.3933L37.2452 35.9368C36.6623 37.3418 36.8915 39.0347 37.9328 41.0156L37.2164 41.2246C36.2 39.0791 36.0173 37.2274 36.6815 35.6542C36.103 36.0244 35.5238 36.2741 34.944 36.4035C33.825 36.6313 32.5075 36.4183 30.9842 35.758L31.0941 35.0423C32.609 35.6819 33.8775 35.9052 34.8912 35.6912C35.3506 35.5625 35.812 35.3558 36.2615 35.0718L33.4678 32.6154L33.9235 32.0972L36.8297 34.6527C37.1672 34.3901 37.4943 34.0786 37.8263 33.7313L38.2555 33.2432L36.4607 31.665C35.8008 31.8704 35.1777 31.9883 34.5907 32.0048L34.4825 31.2039C35.6867 31.1975 36.8964 30.8363 38.1192 30.1272ZM47.1647 40.784C47.062 40.8402 46.9669 40.903 46.8708 40.9517C46.0986 42.0571 45.603 43.1659 45.3764 44.2716C46.4668 43.819 47.5232 43.0567 48.524 41.9792L47.1647 40.784ZM45.8263 41.4581C45.4252 41.6114 45.0562 41.713 44.6976 41.7573L44.7388 41.0745C45.9275 40.828 47.1851 40.1096 48.4975 38.9199L48.9713 39.4563C48.5546 39.809 48.1494 40.1185 47.763 40.3913L49.9634 42.3261L49.5077 42.8442L49.0271 42.4216C47.8274 43.7103 46.5797 44.5841 45.2635 45.0512C45.1918 45.9203 45.2687 46.7869 45.5092 47.6642L44.7673 47.9173C44.5334 47.0325 44.4555 46.1518 44.5339 45.2752C43.6829 45.4858 42.8136 45.5203 41.9202 45.4006L42.0434 44.6699C42.9311 44.8113 43.7995 44.7626 44.6354 44.5389C44.8241 43.5064 45.2189 42.482 45.8263 41.4581ZM47.0279 38.2136L42.8943 42.9147L42.3986 42.4789L46.0899 38.281L44.3101 36.716L40.6188 40.9139L40.1232 40.4781L44.2568 35.777L47.0279 38.2136ZM41.8392 42.3731C41.8974 43.1701 41.8947 43.9001 41.8244 44.5706L41.083 44.6112C41.1918 43.9877 41.2227 43.2559 41.1824 42.4082L41.8392 42.3731ZM44.4757 37.8603L44.9488 38.2763L42.9348 40.5668C42.1538 41.4247 41.4186 42.0034 40.7152 42.3036C40.0306 42.5672 39.2949 42.5862 38.5015 42.3679L38.618 41.6447C39.3682 41.8516 40.0474 41.8363 40.6275 41.6007C41.2123 41.3293 41.8259 40.8435 42.4617 40.1508L44.4757 37.8603Z" fill="white"/>
</svg>
