<svg width="22" height="22" viewBox="0 0 22 22" fill="none" xmlns="http://www.w3.org/2000/svg">
<path d="M11.0107 2.75427C12.1258 2.75427 13.2064 2.97126 14.2227 3.4031C15.2045 3.81775 16.0875 4.41287 16.8459 5.17126C17.6043 5.92966 18.1994 6.81267 18.6141 7.79451C19.0438 8.81072 19.2629 9.89138 19.2629 11.0064C19.2629 12.1215 19.0459 13.2021 18.6141 14.2183C18.1994 15.2002 17.6043 16.0832 16.8459 16.8416C16.0875 17.6 15.2045 18.1951 14.2227 18.6097C13.2064 19.0394 12.1258 19.2586 11.0107 19.2586C9.8957 19.2586 8.81504 19.0373 7.79883 18.6076C6.81699 18.1929 5.93398 17.5978 5.17559 16.8394C4.41719 16.081 3.82207 15.198 3.40742 14.2162C2.97773 13.2 2.75859 12.1193 2.75859 11.0043C2.75859 9.88923 2.97559 8.80857 3.40742 7.79236C3.82207 6.81052 4.41719 5.92752 5.17559 5.16912C5.93398 4.41072 6.81699 3.8156 7.79883 3.40095C8.81504 2.97341 9.8957 2.75427 11.0107 2.75427ZM11.0107 1.37927C5.69551 1.37927 1.38574 5.68904 1.38574 11.0043C1.38574 16.3195 5.69551 20.6293 11.0107 20.6293C16.326 20.6293 20.6357 16.3195 20.6357 11.0043C20.6357 5.68904 16.326 1.37927 11.0107 1.37927Z" fill="#F61818"/>
<path d="M9.93652 15.849C9.93652 16.1339 10.0497 16.4071 10.2512 16.6086C10.4526 16.81 10.7258 16.9232 11.0107 16.9232C11.2956 16.9232 11.5689 16.81 11.7703 16.6086C11.9718 16.4071 12.085 16.1339 12.085 15.849C12.085 15.5641 11.9718 15.2909 11.7703 15.0894C11.5689 14.888 11.2956 14.7748 11.0107 14.7748C10.7258 14.7748 10.4526 14.888 10.2512 15.0894C10.0497 15.2909 9.93652 15.5641 9.93652 15.849Z" fill="#F61818"/>
<path d="M12.3857 6.46248C12.3857 5.70193 11.7691 5.08533 11.0107 5.08533C10.2523 5.08533 9.63574 5.70193 9.63574 6.46033V6.46248L10.1514 12.9422C10.1621 13.4062 10.5424 13.7801 11.0107 13.7801C11.4791 13.7801 11.8572 13.4062 11.8701 12.9422L12.3857 6.46248Z" fill="#F61818"/>
</svg>
