<svg width="20" height="20" viewBox="0 0 20 20" fill="none" xmlns="http://www.w3.org/2000/svg">
<path d="M14.606 17C14.5751 17 14.5502 16.9992 14.5324 16.9983H5.10967C4.47846 16.9983 4.11513 16.744 3.92149 16.5307C3.49715 16.0632 3.53123 15.4293 3.55037 15.2534V9.83188H4.55924V15.3195L4.55448 15.3479C4.54248 15.4444 4.54135 15.7442 4.68514 15.9C4.71556 15.9329 4.80814 16.0332 5.10968 16.0332H14.5727L14.5845 16.0345C14.6184 16.0356 14.9362 16.041 15.1361 15.8602C15.2694 15.7397 15.337 15.5403 15.337 15.2678V9.82772H16.3458V15.2678C16.3458 15.9595 16.0582 16.3591 15.8169 16.5725C15.3829 16.9564 14.833 17 14.606 17ZM4.05479 10.2848H2.50446C2.29495 10.2848 2.10727 10.1609 2.03288 9.97354C1.95851 9.78618 2.01292 9.57435 2.16961 9.44132L9.61345 3.12164C9.80293 2.96077 10.0877 2.95929 10.279 3.11822L17.8263 9.38815C17.9832 9.51853 18.0405 9.72764 17.9706 9.91487C17.9006 10.1021 17.7178 10.2291 17.51 10.2348L15.8558 10.2803C15.8509 10.2804 15.846 10.2805 15.8411 10.2805C15.5692 10.2805 15.345 10.0734 15.3371 9.81177C15.3291 9.54537 15.5484 9.32322 15.8269 9.31557L16.1883 9.30565L9.95191 4.12464L3.83279 9.31968H4.05479C4.33338 9.31968 4.55922 9.53572 4.55922 9.80222C4.55922 10.0687 4.33338 10.2848 4.05479 10.2848ZM8.25815 16.5204C8.02308 16.5204 7.83253 16.3381 7.83253 16.1132V12.7076C7.83256 12.6342 7.85198 12.3321 8.14813 12.0441C8.50754 11.6947 9.11693 11.5175 9.95938 11.5175C10.7891 11.5175 11.3919 11.6971 11.7509 12.0514C12.054 12.3504 12.0735 12.6652 12.0729 12.7487V16.1001C12.0729 16.325 11.8824 16.5073 11.6473 16.5073C11.4122 16.5073 11.2217 16.325 11.2217 16.1001V12.7535C11.2189 12.7359 11.2011 12.6615 11.0953 12.5795C10.976 12.487 10.6697 12.3318 9.95936 12.3318C9.13537 12.3318 8.84255 12.53 8.7549 12.6152C8.71187 12.6571 8.6938 12.6927 8.68622 12.7152C8.68507 12.7185 8.68428 12.7213 8.68375 12.7234V16.1132C8.68376 16.3381 8.49321 16.5204 8.25815 16.5204Z" fill="#272636" stroke="black" stroke-width="0.4"/>
</svg>
