<svg width="51" height="45" viewBox="0 0 51 45" fill="none" xmlns="http://www.w3.org/2000/svg">
<path d="M51 45L0 0H28.5L51 20V45Z" fill="#FE6426"/>
<path d="M27.3434 5.50328L31.259 8.94624L30.7651 9.50797L29.1212 8.06251C28.8039 8.3401 28.4928 8.5939 28.1653 8.83318L29.71 10.1915L26.2816 14.0905L25.7033 13.5821L28.6524 10.2282L26.5128 8.34696L23.5057 11.7669L22.9192 11.2512L26.4057 7.28603L27.587 8.32473C27.9146 8.08545 28.2256 7.83165 28.5347 7.54679L26.8495 6.06501L27.3434 5.50328ZM25.2272 13.2074C25.3677 14.1804 25.41 15.0818 25.3769 15.9023L24.5852 15.9532C24.6533 15.1928 24.6182 14.2831 24.481 13.2397L25.2272 13.2074ZM26.81 9.57494L27.3717 10.0689L26.1223 11.4897C25.3286 12.3591 24.5305 12.917 23.7434 13.1624C23.001 13.3737 22.1474 13.3117 21.19 12.9678L21.3192 12.1879C22.2135 12.5202 22.9894 12.5873 23.6315 12.3902C24.2715 12.162 24.9122 11.6999 25.5606 10.9958L26.81 9.57494ZM25.6667 3.54552L26.1127 3.93775C26.1006 5.08428 26.0357 6.25758 25.9179 7.45766L25.151 7.5303C25.3259 6.24861 25.4216 5.19025 25.4463 4.36247C24.2346 4.79104 23.0139 5.07989 21.7842 5.22902L21.8668 4.45209C23.0819 4.31948 24.3482 4.01211 25.6667 3.54552ZM21.2699 6.08044L24.2272 8.68082L23.7914 9.17646C22.7752 9.61585 21.7821 9.92906 20.7965 10.1171C20.8499 10.706 20.8785 11.2731 20.8741 11.8112L20.0741 11.8548C20.1232 10.7994 20.0269 9.54296 19.777 8.07811L20.5076 8.04677C20.5924 8.51678 20.6606 8.97225 20.7206 9.42046C21.4587 9.26393 22.253 9.01027 23.1045 8.67499L20.7832 6.63391L21.2699 6.08044ZM24.2639 5.49063C24.1988 6.29762 24.101 6.95861 23.9797 7.49641L23.2813 7.42435C23.4235 6.84624 23.5276 6.16146 23.6019 5.37727L24.2639 5.49063ZM31.8748 18.2909L31.3591 18.8774C31.0449 18.7183 30.7462 18.5583 30.4476 18.3982L29.1329 19.8934L28.5546 19.3849L29.7531 18.0219C28.7342 17.4482 27.7123 16.828 26.6709 16.1466L27.0389 15.4449C27.3158 15.6297 27.5999 15.8063 27.8768 15.9912L32.373 10.8778L31.7204 10.304L32.2143 9.74225L36.1464 13.1997L35.7542 13.6458L38.9511 16.4568L38.4717 17.002C36.9462 18.3705 35.4185 19.3416 33.897 19.9225C33.6979 20.9486 33.6415 22.0122 33.7268 23.0979L32.9308 23.2036C32.8785 22.1469 32.9389 21.1454 33.1037 20.1917C32.0475 20.4934 30.9958 20.6233 29.9477 20.5659L29.9497 19.7474C31.0837 19.807 32.1892 19.6659 33.289 19.3147C33.7091 17.6041 34.4715 16.0041 35.5761 14.5146L35.2457 14.2241L35.6525 13.7615L35.0164 13.2022L30.9633 17.8117C31.2702 17.979 31.5689 18.1391 31.8748 18.2909ZM36.1213 14.994C35.1745 16.2707 34.5121 17.6071 34.1186 19.0042C35.3927 18.4547 36.6499 17.6413 37.8809 16.5412L36.1213 14.994ZM30.2688 17.4354L31.2567 16.3119L29.7697 15.0045L28.5349 16.4088C29.1115 16.7693 29.6943 17.1059 30.2688 17.4354ZM30.2419 14.4675L31.7288 15.775L32.8329 14.5193L31.3459 13.2119L30.2419 14.4675ZM31.8253 12.6667L33.3123 13.9741L34.4381 12.6937L32.9512 11.3863L31.8253 12.6667ZM44.1412 19.5997L44.7525 20.1372L43.4451 21.6241L46.4107 24.2318L42.9968 28.1143L42.402 27.5913L42.8596 27.0709L40.4888 24.9863L38.0119 27.8032L37.4006 27.2657L39.8775 24.4487L37.5149 22.3713L37.0573 22.8918L36.4625 22.3688L39.8764 18.4862L42.8338 21.0866L44.1412 19.5997ZM38.0233 21.7931L40.3859 23.8705L42.3253 21.6649L39.9627 19.5875L38.0233 21.7931ZM40.9972 24.408L43.368 26.4927L45.3074 24.287L42.9366 22.2024L40.9972 24.408Z" fill="white"/>
</svg>
