<svg width="65" height="61" viewBox="0 0 65 61" fill="none" xmlns="http://www.w3.org/2000/svg">
<path d="M29.4859 14.9373L37.8669 22.4025L51.4868 34.5345L51.4868 59.997L1.70379e-06 14.5015L29.4859 14.9373Z" fill="#FE6426"/>
<path d="M27.7752 21.5442L31.3349 24.6742L30.8858 25.1848L29.3914 23.8708C29.1029 24.1231 28.8201 24.3539 28.5224 24.5714L29.9267 25.8062L26.8099 29.3508L26.2842 28.8886L28.9652 25.8396L27.0201 24.1294L24.2864 27.2384L23.7532 26.7696L26.9228 23.1649L27.9967 24.1092C28.2945 23.8916 28.5772 23.6609 28.8582 23.402L27.3262 22.0549L27.7752 21.5442ZM25.8514 28.5479C25.9791 29.4325 26.0175 30.252 25.9875 30.9979L25.2677 31.0441C25.3296 30.3529 25.2978 29.5259 25.1731 28.5773L25.8514 28.5479ZM27.2902 25.2457L27.8009 25.6948L26.6651 26.9864C25.9436 27.7768 25.218 28.2839 24.5025 28.507C23.8275 28.6992 23.0516 28.6427 22.1812 28.3302L22.2986 27.6212C23.1116 27.9232 23.817 27.9842 24.4007 27.805C24.9826 27.5976 25.565 27.1776 26.1545 26.5374L27.2902 25.2457ZM26.2509 19.7644L26.6564 20.121C26.6454 21.1633 26.5864 22.2299 26.4793 23.3209L25.7821 23.387C25.9411 22.2218 26.0281 21.2596 26.0506 20.5071C24.949 20.8967 23.8392 21.1593 22.7213 21.2949L22.7964 20.5886C23.9011 20.468 25.0523 20.1886 26.2509 19.7644ZM22.2538 22.0689L24.9423 24.4329L24.5461 24.8835C23.6223 25.2829 22.7194 25.5677 21.8234 25.7386C21.872 26.274 21.898 26.7895 21.894 27.2787L21.1667 27.3183C21.2114 26.3589 21.1239 25.2167 20.8966 23.885L21.5608 23.8565C21.6379 24.2838 21.6999 24.6978 21.7544 25.1053C22.4255 24.963 23.1476 24.7324 23.9216 24.4276L21.8114 22.5721L22.2538 22.0689ZM24.9757 21.5327C24.9165 22.2663 24.8276 22.8672 24.7173 23.3562L24.0824 23.2906C24.2116 22.7651 24.3063 22.1426 24.3739 21.4297L24.9757 21.5327ZM31.8947 33.1693L31.4258 33.7025C31.1402 33.5579 30.8687 33.4124 30.5972 33.2668L29.402 34.6261L28.8763 34.1639L29.9658 32.9248C29.0395 32.4032 28.1105 31.8394 27.1638 31.22L27.4984 30.582C27.7501 30.7501 28.0084 30.9106 28.2601 31.0787L32.3475 26.4302L31.7543 25.9085L32.2033 25.3978L35.7779 28.541L35.4213 28.9465L38.3276 31.502L37.8918 31.9976C36.505 33.2417 35.1162 34.1245 33.733 34.6526C33.552 35.5854 33.5007 36.5523 33.5783 37.5393L32.8547 37.6354C32.8071 36.6748 32.862 35.7643 33.0118 34.8973C32.0516 35.1716 31.0955 35.2897 30.1427 35.2375L30.1445 34.4934C31.1754 34.5476 32.1804 34.4193 33.1803 34.1C33.5622 32.545 34.2553 31.0904 35.2595 29.7363L34.9591 29.4722L35.3289 29.0517L34.7506 28.5432L31.066 32.7337C31.345 32.8858 31.6165 33.0313 31.8947 33.1693ZM35.7551 30.1722C34.8944 31.3328 34.2922 32.5477 33.9345 33.8177C35.0928 33.3182 36.2357 32.5788 37.3547 31.5787L35.7551 30.1722ZM30.4347 32.3916L31.3327 31.3702L29.981 30.1817L28.8584 31.4583C29.3825 31.786 29.9124 32.0921 30.4347 32.3916ZM30.4102 29.6935L31.7619 30.8821L32.7656 29.7406L31.4139 28.552L30.4102 29.6935ZM31.8497 28.0564L33.2015 29.245L34.225 28.081L32.8732 26.8924L31.8497 28.0564ZM43.0459 34.3591L43.6017 34.8478L42.4131 36.1995L45.1091 38.5701L42.0055 42.0997L41.4648 41.6243L41.8808 41.1512L39.7255 39.256L37.4738 41.8168L36.9181 41.3282L39.1698 38.7674L37.022 36.8788L36.606 37.3519L36.0653 36.8765L39.1689 33.3469L41.8573 35.7109L43.0459 34.3591ZM37.4842 36.3531L39.632 38.2417L41.3951 36.2366L39.2473 34.348L37.4842 36.3531ZM40.1878 38.7303L42.3431 40.6255L44.1061 38.6204L41.9508 36.7252L40.1878 38.7303Z" fill="white"/>
</svg>
