<svg width="65" height="61" viewBox="0 0 65 61" fill="none" xmlns="http://www.w3.org/2000/svg">
<path d="M29.4859 14.8387L37.8669 22.3038L51.4868 34.4359L51.4868 59.8984L1.70379e-06 14.4029L29.4859 14.8387Z" fill="#D9D9D9"/>
<path d="M24.6281 18.5442L28.1878 21.6742L27.7387 22.1848L26.2443 20.8708C25.9558 21.1231 25.6731 21.3539 25.3753 21.5714L26.7796 22.8062L23.6628 26.3508L23.1371 25.8886L25.8181 22.8396L23.8731 21.1294L21.1393 24.2384L20.6061 23.7696L23.7757 20.1649L24.8496 21.1092C25.1474 20.8916 25.4301 20.6609 25.7111 20.402L24.1791 19.0549L24.6281 18.5442ZM22.7043 25.5479C22.832 26.4325 22.8704 27.252 22.8404 27.9979L22.1206 28.0441C22.1825 27.3529 22.1507 26.5259 22.026 25.5773L22.7043 25.5479ZM24.1432 22.2457L24.6538 22.6948L23.518 23.9864C22.7965 24.7768 22.0709 25.2839 21.3554 25.507C20.6804 25.6992 19.9045 25.6427 19.0341 25.3302L19.1516 24.6212C19.9645 24.9232 20.6699 24.9842 21.2536 24.805C21.8355 24.5976 22.4179 24.1776 23.0074 23.5374L24.1432 22.2457ZM23.1038 16.7644L23.5093 17.121C23.4983 18.1633 23.4393 19.2299 23.3322 20.3209L22.635 20.387C22.794 19.2218 22.881 18.2596 22.9035 17.5071C21.8019 17.8967 20.6922 18.1593 19.5742 18.2949L19.6493 17.5886C20.754 17.468 21.9052 17.1886 23.1038 16.7644ZM19.1067 19.0689L21.7952 21.4329L21.399 21.8835C20.4752 22.2829 19.5723 22.5677 18.6764 22.7386C18.7249 23.274 18.7509 23.7895 18.7469 24.2787L18.0197 24.3183C18.0643 23.3589 17.9768 22.2167 17.7495 20.885L18.4138 20.8565C18.4908 21.2838 18.5528 21.6978 18.6073 22.1053C19.2784 21.963 20.0005 21.7324 20.7745 21.4276L18.6643 19.5721L19.1067 19.0689ZM21.8286 18.5327C21.7694 19.2663 21.6805 19.8672 21.5702 20.3562L20.9353 20.2906C21.0645 19.7651 21.1592 19.1426 21.2268 18.4297L21.8286 18.5327ZM28.7476 30.1693L28.2787 30.7025C27.9931 30.5579 27.7216 30.4124 27.4501 30.2668L26.2549 31.6261L25.7292 31.1639L26.8187 29.9248C25.8925 29.4032 24.9634 28.8394 24.0167 28.22L24.3513 27.582C24.603 27.7501 24.8613 27.9106 25.113 28.0787L29.2004 23.4302L28.6072 22.9085L29.0562 22.3978L32.6308 25.541L32.2742 25.9465L35.1805 28.502L34.7447 28.9976C33.3579 30.2417 31.9691 31.1245 30.5859 31.6526C30.4049 32.5854 30.3536 33.5523 30.4312 34.5393L29.7076 34.6354C29.66 33.6748 29.7149 32.7643 29.8647 31.8973C28.9045 32.1716 27.9485 32.2897 26.9956 32.2375L26.9974 31.4934C28.0283 31.5476 29.0333 31.4193 30.0332 31.1C30.4151 29.545 31.1082 28.0904 32.1124 26.7363L31.812 26.4722L32.1818 26.0517L31.6036 25.5432L27.9189 29.7337C28.1979 29.8858 28.4695 30.0313 28.7476 30.1693ZM32.6081 27.1722C31.7473 28.3328 31.1451 29.5477 30.7874 30.8177C31.9457 30.3182 33.0886 29.5788 34.2076 28.5787L32.6081 27.1722ZM27.2876 29.3916L28.1856 28.3702L26.8339 27.1817L25.7113 28.4583C26.2354 28.786 26.7653 29.0921 27.2876 29.3916ZM27.2631 26.6935L28.6148 27.8821L29.6185 26.7406L28.2668 25.552L27.2631 26.6935ZM28.7026 25.0564L30.0544 26.245L31.0779 25.081L29.7261 23.8924L28.7026 25.0564ZM38.1192 30.1272L38.4506 30.7649C38.0267 31.0046 37.6076 31.2087 37.2008 31.3836L38.7178 32.7175L39.8733 31.4033L40.4291 31.8919L39.2735 33.2061L41.7893 35.4182L41.327 35.9439L38.8113 33.7318L38.382 34.22C38.0501 34.5672 37.7229 34.8788 37.393 35.1479L40.4945 37.8751L40.0389 38.3933L37.2452 35.9368C36.6623 37.3418 36.8915 39.0347 37.9328 41.0156L37.2164 41.2246C36.2 39.0791 36.0173 37.2274 36.6815 35.6542C36.103 36.0244 35.5238 36.2741 34.944 36.4035C33.825 36.6313 32.5075 36.4183 30.9842 35.758L31.0941 35.0423C32.609 35.6819 33.8775 35.9052 34.8912 35.6912C35.3506 35.5625 35.812 35.3558 36.2615 35.0718L33.4678 32.6154L33.9235 32.0972L36.8297 34.6527C37.1672 34.3901 37.4943 34.0786 37.8263 33.7313L38.2555 33.2432L36.4607 31.665C35.8008 31.8704 35.1777 31.9883 34.5907 32.0048L34.4825 31.2039C35.6867 31.1975 36.8964 30.8363 38.1192 30.1272ZM47.1647 40.784C47.062 40.8402 46.9669 40.903 46.8708 40.9517C46.0986 42.0571 45.603 43.1659 45.3764 44.2716C46.4668 43.819 47.5232 43.0567 48.524 41.9792L47.1647 40.784ZM45.8263 41.4581C45.4252 41.6114 45.0562 41.713 44.6976 41.7573L44.7388 41.0745C45.9275 40.828 47.1851 40.1096 48.4975 38.9199L48.9713 39.4563C48.5546 39.809 48.1494 40.1185 47.763 40.3913L49.9634 42.3261L49.5077 42.8442L49.0271 42.4216C47.8274 43.7103 46.5797 44.5841 45.2635 45.0512C45.1918 45.9203 45.2687 46.7869 45.5092 47.6642L44.7673 47.9173C44.5334 47.0325 44.4555 46.1518 44.5339 45.2752C43.6829 45.4858 42.8136 45.5203 41.9202 45.4006L42.0434 44.6699C42.9311 44.8113 43.7995 44.7626 44.6354 44.5389C44.8241 43.5064 45.2189 42.482 45.8263 41.4581ZM47.0279 38.2136L42.8943 42.9147L42.3986 42.4789L46.0899 38.281L44.3101 36.716L40.6188 40.9139L40.1232 40.4781L44.2568 35.777L47.0279 38.2136ZM41.8392 42.3731C41.8974 43.1701 41.8947 43.9001 41.8244 44.5706L41.083 44.6112C41.1918 43.9877 41.2227 43.2559 41.1824 42.4082L41.8392 42.3731ZM44.4757 37.8603L44.9488 38.2763L42.9348 40.5668C42.1538 41.4247 41.4186 42.0034 40.7152 42.3036C40.0306 42.5672 39.2949 42.5862 38.5015 42.3679L38.618 41.6447C39.3682 41.8516 40.0474 41.8363 40.6275 41.6007C41.2123 41.3293 41.8259 40.8435 42.4617 40.1508L44.4757 37.8603Z" fill="white"/>
</svg>
