<svg width="22" height="22" viewBox="0 0 22 22" fill="none" xmlns="http://www.w3.org/2000/svg">
<path d="M11 20.4284C9.72642 20.4284 8.49258 20.1795 7.33023 19.6871C6.20759 19.2131 5.1988 18.5327 4.333 17.6668C3.46719 16.801 2.78672 15.7923 2.31278 14.6696C1.8203 13.5073 1.57141 12.2708 1.57141 10.9999C1.57141 9.72895 1.8203 8.49246 2.31278 7.3301C2.78672 6.20747 3.46719 5.19868 4.333 4.33287C5.1988 3.46706 6.20759 2.7866 7.33023 2.31265C8.49258 1.82018 9.72907 1.57129 11 1.57129C12.2709 1.57129 13.5074 1.82018 14.6697 2.31265C15.7924 2.7866 16.8012 3.46706 17.667 4.33287C18.5328 5.19868 19.2132 6.20747 19.6872 7.3301C20.1797 8.49246 20.4286 9.72895 20.4286 10.9999C20.4286 12.2708 20.1797 13.5073 19.6872 14.6696C19.2132 15.7923 18.5328 16.801 17.667 17.6668C16.8012 18.5327 15.7924 19.2131 14.6697 19.6871C13.5074 20.1795 12.2735 20.4284 11 20.4284ZM11 3.15993C8.90563 3.15993 6.93836 3.97543 5.45563 5.45551C3.9729 6.93559 3.16005 8.90551 3.16005 10.9999C3.16005 13.0942 3.97555 15.0615 5.45563 16.5442C6.93571 18.0269 8.90563 18.8398 11 18.8398C13.0943 18.8398 15.0616 18.0243 16.5443 16.5442C18.0271 15.0641 18.8399 13.0942 18.8399 10.9999C18.8399 8.90551 18.0244 6.93824 16.5443 5.45551C15.0643 3.97278 13.0943 3.15993 11 3.15993Z" fill="#FE6426"/>
<path d="M10.2143 12.5714C9.77954 12.5714 9.42859 12.1997 9.42859 11.7392V6.33226C9.42859 5.87174 9.77954 5.5 10.2143 5.5C10.6491 5.5 11 5.87174 11 6.33226V11.7392C11 12.1997 10.6491 12.5714 10.2143 12.5714Z" fill="#FE6426"/>
<path d="M14.8368 12.5714H10.3061C9.82053 12.5714 9.42859 12.2205 9.42859 11.7857C9.42859 11.351 9.82053 11 10.3061 11H14.8368C15.3224 11 15.7143 11.351 15.7143 11.7857C15.7143 12.2205 15.3224 12.5714 14.8368 12.5714Z" fill="#FE6426"/>
</svg>
