<svg xmlns="http://www.w3.org/2000/svg" xmlns:xlink="http://www.w3.org/1999/xlink" width="44px" height="42px" viewBox="0 0 44 42" version="1.1">
    <title>icon_kefu</title>
    <g id="页面-1" stroke="none" stroke-width="1" fill="none" fill-rule="evenodd">
        <g id="下单" transform="translate(-80.000000, -1462.000000)" fill="#191E2E">
            <g id="购买" transform="translate(0.000000, 1434.000000)">
                <g id="编组-10" transform="translate(78.000000, 28.000000)">
                    <g id="编组-15" transform="translate(2.000000, 0.000000)">
                        <path d="M26.782646,20.0453214 C27.8392296,20.0453214 28.6956721,20.900219 28.6956721,21.9546766 C28.6956721,25.644691 25.6978711,28.6364132 22.0001087,28.6364132 C18.3021782,28.6364132 15.3043018,25.644691 15.3043018,21.9546766 C15.2997253,20.9247166 16.1144134,20.0768103 17.145552,20.0381064 C18.1766906,19.9996821 19.0528614,20.7839955 19.1255534,21.8112709 L19.1303734,21.9546766 C19.1288601,23.5045666 20.3633905,24.7743566 21.9158152,24.8197162 C23.4682398,24.8651877 24.7752941,23.669953 24.8647999,22.1224681 L24.8696199,21.9546766 C24.8696199,20.900219 25.7260624,20.0453214 26.782646,20.0453214 M38.2609709,21.9546766 C37.2043873,21.9546766 36.3479447,22.8092946 36.3479447,23.8637522 L36.3479447,29.590867 C36.3477206,30.2729394 36.7122453,30.9032761 37.3042056,31.244508 C37.896222,31.5855722 38.6254956,31.5855722 39.2174559,31.244508 C39.8094723,30.9032761 40.173997,30.2729394 40.173997,29.590867 L40.173997,23.8637522 C40.173997,22.8092946 39.3175545,21.9546766 38.2609709,21.9546766 M5.73902233,21.9546766 C4.68249477,21.9546766 3.82605225,22.8092946 3.82605225,23.8637522 L3.82605225,29.590867 C3.82605225,30.2729394 4.19057696,30.9032761 4.78253729,31.244508 C5.37455367,31.5855722 6.10377123,31.5855722 6.69578761,31.244508 C7.28774794,30.9032761 7.65227265,30.2729394 7.65227265,29.590867 L7.65227265,23.8637522 C7.65227265,22.8092946 6.79560595,21.9546766 5.73902233,21.9546766 M22.0001087,0 C33.5193474,0 42.8771069,9.23697709 43.0415466,20.6944507 C43.6683116,21.6330763 44.0017307,22.7359138 44,23.8637522 L44,29.590867 C44.0004416,31.5685134 42.9782704,33.4064454 41.296435,34.4524575 C39.6143754,35.4985255 37.5109042,35.6045138 35.7318846,34.7330048 C34.2932898,38.3736885 30.4891516,40.9567825 26.0547175,41.0426358 C25.5106767,41.65239 24.7312978,42.0009489 23.9131348,42 L21.0433995,42 C19.4587483,42 18.1738883,40.7179593 18.1738883,39.1364127 C18.1738883,37.554922 19.4587483,36.2728832 21.0433995,36.2728832 L23.9131348,36.2728832 C24.7614506,36.2728832 25.5229508,36.6402906 26.0490008,37.223422 L25.826161,37.2273371 C29.489511,37.2273371 32.3925378,34.7224899 32.5179693,31.7022432 L32.5216683,31.5 L32.5216683,23.8637522 C32.5216683,22.2183889 33.2305972,20.6525029 34.4679859,19.5651022 C35.7053747,18.4777575 37.3515087,17.9739356 38.9869378,18.1821648 C37.639194,10.0322528 30.5476079,3.81803927 22.0001087,3.81803927 C13.4526096,3.81803927 6.36079926,10.0330917 5.01221476,18.1821648 C6.64781203,17.9737118 8.29417017,18.47731 9.53178313,19.5646548 C10.7691719,20.6520554 11.4783249,22.2181652 11.4783249,23.8637522 L11.4783249,29.590867 C11.4783249,32.7540721 8.90871713,35.3180378 5.73902233,35.3180378 C2.56960777,35.3180378 0,32.7540721 0,29.590867 L0,23.8637522 C0,22.6913931 0.35292314,21.6013078 0.958502705,20.6944507 L0.95648504,20.9998312 C0.95648504,9.40213984 10.3781934,0 22.0001087,0" id="icon_kefu"/>
                    </g>
                </g>
            </g>
        </g>
    </g>
<script xmlns=""/></svg>