<svg xmlns="http://www.w3.org/2000/svg" xmlns:xlink="http://www.w3.org/1999/xlink" width="54px" height="54px" viewBox="0 0 54px 54px" version="1.1">
	<title>资金明细</title>
	<g id="页面-1" stroke="none" stroke-width="1" fill="none" fill-rule="evenodd">
		<g id="个人中心备份" transform="translate(-600.000000, -878.000000)">
			<g id="常用工具" transform="translate(18.000000, 770.000000)">
				<g id="编组-9" transform="translate(582.000000, 108.000000)">
					<g id="安全中心" transform="translate(9.000000, 5.000000)">
						<path d="M9.25009239,3.38483596 C10.1573144,3.38076268 10.9040942,4.10145325 10.9382767,5.01372058 C10.9721513,5.9259879 10.2812337,6.7012199 9.37610571,6.76561597 L9.25009239,6.76970658 L3.36361957,6.76970658 L3.36361957,40.6184254 L33.6363804,40.6184254 L33.6363804,6.76970658 L28.1705063,6.76970658 C27.2632227,6.77385916 26.5164429,6.05310661 26.482322,5.14083929 C26.4483858,4.22857196 27.1393651,3.45333997 28.0444314,3.3889439 L28.1705063,3.38483596 L33.6363804,3.38483596 C35.4287136,3.38483596 36.9061983,4.79921163 36.9959351,6.6005042 L37,6.76970658 L37,40.6184254 C37,42.4221351 35.5947605,43.9088848 33.8045214,43.9991881 L33.6363804,44.0032787 L3.36361957,44.0032787 C1.57128637,44.0032787 0.0938017065,42.5891683 0.00406494592,40.7876898 L0,40.6184254 L0,6.76970658 C0,4.96605881 1.40523949,3.47924714 3.19547862,3.3889439 L3.36361957,3.38483596 L9.25009239,3.38483596 Z" id="Fill-1" stroke="#1E2331" fill="#1E2331"/>
						<path d="M12.6136996,3.38485329 L24.3863373,3.38485329 C25.3072939,3.38485329 26.0682395,4.15060251 26.0682395,5.07743488 C26.0682395,6.00395735 25.3072939,6.76970658 24.3863373,6.76970658 L12.6136996,6.76970658 C11.692743,6.76970658 10.9317359,6.00395735 10.9317359,5.07743488 C10.9317359,4.15060251 11.692743,3.38485329 12.6136996,3.38485329 M24.3863373,0 L12.6136996,0 C9.83444684,0 7.56811631,2.28063733 7.56811631,5.07743488 C7.56811631,7.87398451 9.83444684,10.1546218 12.6136996,10.1546218 L24.3863373,10.1546218 C27.1655901,10.1546218 29.4318591,7.87398451 29.4318591,5.07743488 C29.4318591,2.28063733 27.1655901,0 24.3863373,0" id="Fill-3" stroke="#1E2331" fill="#1E2331"/>
						<path d="M10,18.0032787 L18,18.0032787 C19.1045695,18.0032787 20,18.8987092 20,20.0032787 L20,22.0032787 L20,22.0032787 L8,22.0032787 L8,20.0032787 C8,18.8987092 8.8954305,18.0032787 10,18.0032787 Z" id="矩形" fill="#1E2331"/>
						<rect id="矩形备份-5" fill="#1E2331" x="8" y="25.0032787" width="22" height="4" rx="2"/>
					</g>
				</g>
			</g>
		</g>
	</g>
<script xmlns=""/></svg>