<svg xmlns="http://www.w3.org/2000/svg" xmlns:xlink="http://www.w3.org/1999/xlink" fill="none" version="1.1" width="45.3564453125" height="48.366424560546875" viewBox="0 0 45.3564453125 48.366424560546875"><defs><linearGradient x1="0.23117521405220032" y1="0" x2="1" y2="0.68304842710495" id="master_svg0_267_0363"><stop offset="0%" stop-color="#FD4093" stop-opacity="1"/><stop offset="100%" stop-color="#FF8709" stop-opacity="1"/></linearGradient></defs><g><g><path d="M-0.000030517578125,0L45.356369482421876,48.3664L45.356369482421876,22.9297L23.632269482421876,0L-0.000030517578125,0Z" fill="url(#master_svg0_267_0363)" fill-opacity="1"/></g><g transform="matrix(0.6858184337615967,0.7277727127075195,-0.726906418800354,0.686736524105072,7.8249859540956095,-16.12878517853096)"><path d="M29.54228515625,6.92C29.51228515625,10.40187,29.40228515625,11.6333,27.01228515625,12.3241C27.14228515625,12.4442,27.332285156250002,12.6945,27.39228515625,12.8447C29.94228515625,12.0638,30.14228515625,10.61219,30.17228515625,6.92L29.54228515625,6.92ZM29.852285156249998,11.0627C30.52228515625,11.5933,31.36228515625,12.3241,31.77228515625,12.7845L32.25228515625,12.3241C31.832285156250002,11.8736,30.972285156250003,11.1628,30.30228515625,10.66219L29.852285156249998,11.0627ZM24.64228515625,6.52C25.00228515625,6.89,25.42228515625,7.4,25.63228515625,7.73L26.13228515625,7.38C25.93228515625,7.07,25.51228515625,6.59,25.13228515625,6.23L24.64228515625,6.52ZM27.90228515625,5.88L27.90228515625,10.60219L28.582285156250002,10.60219L28.582285156250002,6.46L31.102285156249998,6.46L31.102285156249998,10.58219L31.80228515625,10.58219L31.80228515625,5.88L29.86228515625,5.88C29.99228515625,5.56,30.13228515625,5.18,30.27228515625,4.82L32.09228515625,4.82L32.09228515625,4.16L27.65228515625,4.16L27.65228515625,4.82L29.56228515625,4.82C29.46228515625,5.16,29.32228515625,5.56,29.19228515625,5.88L27.90228515625,5.88ZM25.25228515625,3.58719C24.80228515625,4.77,23.94228515625,6.09,22.93228515625,6.95C23.08228515625,7.06,23.33228515625,7.29,23.45228515625,7.42C24.19228515625,6.75,24.84228515625,5.89,25.34228515625,4.970000000000001C26.01228515625,5.67,26.76228515625,6.52,27.12228515625,7.09L27.582285156250002,6.56C27.19228515625,5.99,26.352285156249998,5.08,25.64228515625,4.38C25.73228515625,4.18,25.82228515625,3.96906,25.90228515625,3.76813L25.25228515625,3.58719ZM23.60228515625,8.14L23.60228515625,8.8L26.22228515625,8.8C25.89228515625,9.47094,25.42228515625,10.27172,25.03228515625,10.82234C24.77228515625,10.58219,24.51228515625,10.34188,24.26228515625,10.13156L23.76228515625,10.51203C24.51228515625,11.1728,25.42228515625,12.1039,25.852285156249998,12.7045L26.39228515625,12.2541C26.18228515625,11.9738,25.86228515625,11.6333,25.51228515625,11.283C26.05228515625,10.51203,26.76228515625,9.35078,27.15228515625,8.39L26.67228515625,8.1L26.55228515625,8.14L23.60228515625,8.14ZM42.09228515625,5.44C41.852285156250005,6.92109,41.43228515625,8.211870000000001,40.89228515625,9.2925C40.38228515625,8.18188,40.04228515625,6.87109,39.822285156250004,5.44L42.09228515625,5.44ZM38.65228515625,4.720000000000001L38.65228515625,5.44L39.15228515625,5.44C39.43228515625,7.20125,39.84228515625,8.77219,40.472285156249995,10.04313C39.87228515625,11.0036,39.16228515625,11.7442,38.38228515625,12.2345C38.55228515625,12.3745,38.76228515625,12.6247,38.87228515625,12.8048C39.612285156249996,12.2945,40.29228515625,11.6241,40.862285156249996,10.77359C41.362285156249996,11.5841,41.98228515625,12.2445,42.74228515625,12.7348C42.862285156249996,12.5447,43.09228515625,12.2745,43.26228515625,12.1444C42.45228515625,11.6641,41.80228515625,10.96359,41.29228515625,10.08313C42.06228515625,8.71219,42.62228515625,6.97109,42.88228515625,4.82L42.42228515625,4.7L42.29228515625,4.720000000000001L38.65228515625,4.720000000000001ZM33.97228515625,10.70344L34.14228515625,11.4239L37.15228515625,10.90359L37.15228515625,12.7848L37.88228515625,12.7848L37.88228515625,10.77359L38.77228515625,10.60344L38.73228515625,9.96297L37.88228515625,10.10312L37.88228515625,4.75L38.612285156249996,4.75L38.612285156249996,4.07L34.072285156250004,4.07L34.072285156250004,4.75L34.74228515625,4.75L34.74228515625,10.59203L33.97228515625,10.70344ZM35.46228515625,4.75L37.15228515625,4.75L37.15228515625,6.15L35.46228515625,6.15L35.46228515625,4.75ZM35.46228515625,6.8L37.15228515625,6.8L37.15228515625,8.25L35.46228515625,8.25L35.46228515625,6.8ZM35.46228515625,8.91L37.15228515625,8.91L37.15228515625,10.22156L35.46228515625,10.48188L35.46228515625,8.91ZM49.17228515625,3.59594L49.17228515625,5.39L45.55228515625,5.39L45.55228515625,10.14094L46.30228515625,10.14094L46.30228515625,9.52L49.17228515625,9.52L49.17228515625,12.7945L49.962285156250005,12.7945L49.962285156250005,9.52L52.84228515625,9.52L52.84228515625,10.09078L53.612285156249996,10.09078L53.612285156249996,5.39L49.962285156250005,5.39L49.962285156250005,3.59594L49.17228515625,3.59594ZM46.30228515625,8.780000000000001L46.30228515625,6.12L49.17228515625,6.12L49.17228515625,8.780000000000001L46.30228515625,8.780000000000001ZM52.84228515625,8.780000000000001L49.962285156250005,8.780000000000001L49.962285156250005,6.12L52.84228515625,6.12L52.84228515625,8.780000000000001Z" fill="#FFFFFF" fill-opacity="1"/></g></g></svg>