<svg width="22" height="22" viewBox="0 0 22 22" fill="none" xmlns="http://www.w3.org/2000/svg">
<path d="M9.68516 14.9058C9.50898 14.9058 9.33281 14.8392 9.19961 14.7039L5.96899 11.4732C5.70044 11.2046 5.70044 10.7685 5.96899 10.5C6.23755 10.2314 6.67368 10.2314 6.94224 10.5L9.6873 13.2451L14.9323 8C15.2009 7.73145 15.637 7.73145 15.9056 8C16.1741 8.26855 16.1741 8.70469 15.9056 8.97324L10.1729 14.706C10.0375 14.8392 9.86133 14.9058 9.68516 14.9058Z" fill="#48C434"/>
<path d="M11 20.5434C9.71309 20.5434 8.4627 20.292 7.28535 19.7936C6.14883 19.3123 5.12832 18.6248 4.25176 17.7483C3.3752 16.8717 2.6877 15.8512 2.20645 14.7147C1.70801 13.5373 1.45664 12.2869 1.45664 11C1.45664 9.71311 1.70801 8.46272 2.20645 7.28538C2.6877 6.14885 3.3752 5.12834 4.25176 4.25178C5.12832 3.37522 6.14883 2.68772 7.28535 2.20647C8.4627 1.70803 9.71309 1.45667 11 1.45667C12.2869 1.45667 13.5373 1.70803 14.7147 2.20647C15.8512 2.68772 16.8717 3.37522 17.7482 4.25178C18.6248 5.12834 19.3123 6.14885 19.7936 7.28538C20.292 8.46272 20.5434 9.71311 20.5434 11C20.5434 12.2869 20.292 13.5373 19.7936 14.7147C19.3123 15.8512 18.6248 16.8717 17.7482 17.7483C16.8717 18.6248 15.8512 19.3123 14.7147 19.7936C13.5373 20.2899 12.2869 20.5434 11 20.5434ZM11 2.83167C8.81934 2.83167 6.76758 3.6803 5.225 5.22288C3.68242 6.76545 2.83164 8.81936 2.83164 11C2.83164 13.1807 3.68027 15.2324 5.22285 16.775C6.76543 18.3176 8.81934 19.1684 11 19.1684C13.1807 19.1684 15.2324 18.3198 16.775 16.7772C18.3176 15.2346 19.1684 13.1807 19.1684 11C19.1684 8.81936 18.3197 6.7676 16.7772 5.22502C15.2346 3.68245 13.1807 2.83167 11 2.83167Z" fill="#48C434"/>
</svg>
