<svg xmlns="http://www.w3.org/2000/svg" xmlns:xlink="http://www.w3.org/1999/xlink" width="44px" height="42px" viewBox="0 0 44 42" version="1.1">
    <title>icon_home</title>
    <g id="页面-1" stroke="none" stroke-width="1" fill="none" fill-rule="evenodd">
        <g id="下单" transform="translate(-50.000000, -1462.000000)">
            <g id="购买" transform="translate(0.000000, 1434.000000)">
                <g id="编组-10备份" transform="translate(48.000000, 28.000000)">
                    <g id="编组-15" transform="translate(2.000000, 0.000000)">
                        <path d="M22.1329151,2.00001369 C22.5711078,2.00155462 23.0087319,2.13352411 23.3856056,2.39510258 L23.3856056,2.39510258 L38.0382016,12.5663417 C38.6414649,12.9851251 39,13.6751136 39,14.4111187 L39,14.4111187 L39,37.7600309 C39,38.3795597 38.7506005,38.9408009 38.3461774,39.3469071 C37.9447568,39.7499983 37.3903818,40 36.7776033,40 L36.7776033,40 L7.22209471,40 C6.60944037,40 6.05516327,39.7499848 5.65380213,39.3469245 C5.24940036,38.9408106 5,38.3795651 5,37.7600309 L5,37.7600309 L5,14.430042 C5,13.6885895 5.36392848,12.9940905 5.97462291,12.5764823 L5.97462291,12.5764823 L20.8773316,2.38636136 C21.2561501,2.12736869 21.6947085,1.99847271 22.1329151,2.00001369 Z" id="Fill-1" stroke="#191E2E" stroke-width="4"/>
                        <rect id="矩形" fill="#191E2E" x="12" y="30" width="20" height="4" rx="2"/>
                    </g>
                </g>
            </g>
        </g>
    </g>
<script xmlns=""/></svg>