<svg width="51" height="45" viewBox="0 0 51 45" fill="none" xmlns="http://www.w3.org/2000/svg">
<path d="M51 45L0 0H28.5L51 20V45Z" fill="#FE6426"/>
<path d="M27.5616 5.13853L28.1729 5.67604L27.1778 6.80776L30.0112 9.29918L29.5028 9.87743L26.6694 7.38601L25.3837 8.84816L28.6549 11.7246L28.1465 12.3028L25.4205 9.90581C25.0587 11.4333 25.2034 13.2011 25.8391 15.2102L24.9612 15.3757C24.4285 13.1496 24.4115 11.1865 24.9413 9.48452L24.8752 9.42641L21.563 13.1933L20.9517 12.6558L24.264 8.8889L24.1896 8.82353C22.4036 9.65531 20.4307 9.88335 18.2565 9.52417L18.4044 8.67289C20.3653 9.10813 22.1371 9.02551 23.727 8.41677L20.9927 6.01251L21.5012 5.43425L24.7724 8.31065L26.0581 6.8485L23.2825 4.40792L23.7909 3.82967L26.5665 6.27025L27.5616 5.13853ZM35.6042 12.7669L39.5198 16.2099L39.0258 16.7716L37.382 15.3261C37.0646 15.6037 36.7536 15.8575 36.426 16.0968L37.9708 17.4551L34.5423 21.3542L33.9641 20.8457L36.9131 17.4919L34.7736 15.6106L31.7664 19.0305L31.1799 18.5148L34.6665 14.5497L35.8477 15.5884C36.1753 15.3491 36.4864 15.0953 36.7954 14.8104L35.1103 13.3286L35.6042 12.7669ZM33.4879 20.471C33.6284 21.4441 33.6707 22.3455 33.6377 23.166L32.8459 23.2168C32.914 22.4564 32.8789 21.5467 32.7418 20.5033L33.4879 20.471ZM35.0707 16.8386L35.6324 17.3325L34.3831 18.7533C33.5893 19.6227 32.7912 20.1806 32.0042 20.426C31.2617 20.6374 30.4081 20.5753 29.4508 20.2315L29.5799 19.4516C30.4742 19.7838 31.2502 19.8509 31.8922 19.6538C32.5323 19.4256 33.1729 18.9636 33.8213 18.2594L35.0707 16.8386ZM33.9274 10.8091L34.3735 11.2014C34.3614 12.3479 34.2964 13.5212 34.1787 14.7213L33.4117 14.7939C33.5866 13.5122 33.6823 12.4539 33.7071 11.6261C32.4953 12.0547 31.2746 12.3435 30.0449 12.4926L30.1275 11.7157C31.3427 11.5831 32.609 11.2757 33.9274 10.8091ZM29.5306 13.3441L32.4879 15.9444L32.0521 16.4401C31.0359 16.8795 30.0428 17.1927 29.0572 17.3807C29.1106 17.9696 29.1393 18.5368 29.1348 19.0748L28.3348 19.1184C28.384 18.0631 28.2877 16.8066 28.0377 15.3417L28.7684 15.3104C28.8531 15.7804 28.9213 16.2359 28.9813 16.6841C29.7195 16.5276 30.5138 16.2739 31.3652 15.9386L29.0439 13.8975L29.5306 13.3441ZM32.5247 12.7543C32.4596 13.5612 32.3617 14.2222 32.2404 14.76L31.5421 14.688C31.6842 14.1099 31.7883 13.4251 31.8627 12.6409L32.5247 12.7543ZM40.1356 25.5545L39.6198 26.141C39.3056 25.982 39.007 25.8219 38.7083 25.6618L37.3936 27.157L36.8153 26.6485L38.0138 25.2855C36.9949 24.7118 35.973 24.0916 34.9316 23.4102L35.2996 22.7085C35.5765 22.8934 35.8606 23.07 36.1375 23.2548L40.6337 18.1414L39.9811 17.5676L40.475 17.0059L44.4071 20.4634L44.0149 20.9094L47.2118 23.7205L46.7324 24.2657C45.2069 25.6341 43.6792 26.6052 42.1577 27.1861C41.9586 28.2122 41.9022 29.2758 41.9875 30.3615L41.1915 30.4672C41.1393 29.4106 41.1996 28.409 41.3644 27.4553C40.3082 27.757 39.2565 27.8869 38.2084 27.8295L38.2104 27.011C39.3444 27.0707 40.4499 26.9295 41.5497 26.5783C41.9698 24.8677 42.7322 23.2677 43.8369 21.7782L43.5064 21.4877L43.9132 21.0251L43.2771 20.4658L39.224 25.0753C39.531 25.2426 39.8296 25.4027 40.1356 25.5545ZM44.3821 22.2576C43.4352 23.5343 42.7728 24.8707 42.3793 26.2678C43.6535 25.7183 44.9106 24.9049 46.1416 23.8048L44.3821 22.2576ZM38.5296 24.699L39.5174 23.5755L38.0305 22.2681L36.7957 23.6724C37.3722 24.0329 37.955 24.3696 38.5296 24.699ZM38.5026 21.7311L39.9895 23.0386L41.0936 21.783L39.6067 20.4755L38.5026 21.7311ZM40.0861 19.9303L41.573 21.2378L42.6989 19.9573L41.2119 18.6499L40.0861 19.9303Z" fill="white"/>
</svg>
