<svg width="51" height="45" viewBox="0 0 51 45" fill="none" xmlns="http://www.w3.org/2000/svg">
<path d="M51 45L0 0H28.5L51 20V45Z" fill="#D9D9D9"/>
<path d="M27.3733 11.5494L22.1855 6.98787L20.0428 9.42478C19.7232 9.78826 19.7461 10.1453 20.1261 10.4794L24.273 14.1258C24.4712 14.3001 24.68 14.3958 24.8911 14.4056C25.1871 14.4022 25.7593 13.968 26.6079 13.1029L27.0263 13.7931C26.043 14.7447 25.3651 15.2326 24.978 15.273C24.6437 15.2867 24.2912 15.1379 23.9297 14.8493L19.4524 10.9124C18.7833 10.3241 18.7579 9.68657 19.3536 9.00919L23.167 4.67231L23.7617 5.19529L22.6867 6.41788L27.2714 10.4492L29.1672 8.29314L23.6573 3.4483L24.1658 2.87005L30.2787 8.24513L27.3733 11.5494ZM33.6829 12.2198L35.1863 13.5417C35.5925 13.313 36.005 13.0605 36.4092 12.8007L36.8795 13.4486C36.5116 13.6671 36.1592 13.8846 35.8059 14.0865L38.8789 16.7886L38.3777 17.3586L35.0899 14.4677C34.1005 14.9599 33.1662 15.3395 32.2632 15.6001L33.841 16.9875L34.9886 15.6823L35.5752 16.198L34.4275 17.5032L36.3027 19.152L35.8233 19.6972L33.9481 18.0484L31.5947 20.7249C31.1661 21.2122 30.7169 21.2567 30.2708 20.8644L29.3952 20.0945L29.7725 19.4156C30.0316 19.6873 30.2814 19.9363 30.5375 20.1614C30.7275 20.3285 30.9283 20.3 31.1317 20.0687L33.3616 17.5327L31.2386 15.6659L31.5858 15.0045C32.47 14.8152 33.4291 14.4574 34.4786 13.9301L33.1817 12.7898L33.6829 12.2198ZM34.2674 19.501C34.2936 20.6372 34.229 21.6936 34.0817 22.6773L33.3055 22.7272C33.4733 21.8201 33.5525 20.7472 33.5441 19.5241L34.2674 19.501ZM31.5939 17.1941L31.6874 17.9208C30.5856 18.241 29.4718 18.3749 28.3306 18.3235L28.3894 17.5403C29.4841 17.5947 30.5522 17.4793 31.5939 17.1941ZM32.6719 10.0711C32.5934 11.2765 32.471 12.282 32.2962 13.0805L31.5348 12.9969C31.7221 12.1508 31.8518 11.1371 31.924 9.9555L32.6719 10.0711ZM30.5487 14.2683L30.8968 14.9552C29.4232 15.7981 27.9665 16.5386 26.5266 17.1767L26.191 16.4422C27.693 15.8001 29.1435 15.0834 30.5487 14.2683ZM38.4828 25.185L37.9889 25.7467C36.8776 25.3115 35.7097 24.724 34.4615 23.978L34.8956 23.3344C36.1788 24.1405 37.3715 24.7498 38.4828 25.185ZM42.1844 17.8935L42.549 18.5949C41.1835 19.2984 39.9985 19.7798 39.0024 20.0464C39.4342 20.3383 39.8733 20.6218 40.3279 20.9044C40.7464 20.745 41.1803 20.5846 41.6216 20.416L41.9749 21.0636C39.9957 21.7987 38.4962 22.2379 37.4693 22.3896C38.2061 22.8177 38.9709 23.1973 39.7638 23.5283L39.2989 24.057C38.138 23.5782 37.0973 23.0293 36.1768 22.4103L36.492 21.7353C36.643 21.7802 36.7847 21.8023 36.9171 21.8016C37.5143 21.7554 38.382 21.5516 39.5274 21.1818C38.9911 20.8422 38.4622 20.4942 37.9249 20.139L38.2556 19.4631C38.3828 19.5017 38.5308 19.4999 38.6996 19.4579C39.8304 19.1047 40.9896 18.586 42.1844 17.8935ZM42.691 20.1992L44.6654 21.9352L45.5443 20.9357L46.1473 21.4659L45.2684 22.4655L47.2344 24.1942L46.726 24.7725L44.7599 23.0437L43.6849 24.2663L45.4114 25.7844L44.903 26.3627L40.8717 22.818L41.3802 22.2398L43.0819 23.7361L44.1569 22.5135L42.1826 20.7775L42.691 20.1992ZM43.937 26.9781L41.0171 30.2989L40.4388 29.7904L40.7875 29.3939L38.4249 27.3165L38.0762 27.7131L37.4897 27.1973L40.4097 23.8765L43.937 26.9781ZM38.9188 26.7548L41.2814 28.8322L42.8649 27.0314L40.5023 24.954L38.9188 26.7548Z" fill="white"/>
</svg>
