<svg width="65" height="61" viewBox="0 0 65 61" fill="none" xmlns="http://www.w3.org/2000/svg">
<path d="M29.4859 14.8387L37.8669 22.3038L51.4868 34.4359L51.4868 59.8984L1.70379e-06 14.4029L29.4859 14.8387Z" fill="#D9D9D9"/>
<path d="M27.8023 26.9423L23.0862 22.7954L21.1382 25.0108C20.8477 25.3412 20.8685 25.6658 21.214 25.9696L24.9839 29.2844C25.1641 29.4429 25.3539 29.5299 25.5458 29.5389C25.8149 29.5358 26.3351 29.141 27.1065 28.3545L27.487 28.982C26.593 29.8471 25.9767 30.2906 25.6248 30.3274C25.3209 30.3398 25.0005 30.2045 24.6719 29.9422L20.6016 26.3632C19.9933 25.8283 19.9702 25.2488 20.5117 24.633L23.9784 20.6904L24.5191 21.1658L23.5418 22.2773L27.7098 25.9421L29.4332 23.982L24.4242 19.5776L24.8864 19.052L30.4437 23.9384L27.8023 26.9423ZM33.5383 27.5517L34.9051 28.7535C35.2744 28.5456 35.6494 28.316 36.0168 28.0798L36.4443 28.6688C36.1099 28.8674 35.7896 29.0652 35.4683 29.2488L38.262 31.7052L37.8064 32.2234L34.8175 29.5952C33.918 30.0427 33.0686 30.3878 32.2477 30.6247L33.6821 31.886L34.7254 30.6994L35.2586 31.1683L34.2153 32.3548L35.92 33.8538L35.4842 34.3494L33.7795 32.8504L31.64 35.2836C31.2504 35.7267 30.842 35.7671 30.4365 35.4105L29.6405 34.7106L29.9835 34.0933C30.219 34.3404 30.4461 34.5667 30.6789 34.7714C30.8516 34.9233 31.0342 34.8974 31.2191 34.6871L33.2463 32.3816L31.3163 30.6846L31.6319 30.0833C32.4357 29.9112 33.3076 29.5859 34.2617 29.1066L33.0827 28.0699L33.5383 27.5517ZM34.0698 34.171C34.0936 35.204 34.0348 36.1643 33.901 37.0586L33.1953 37.1039C33.3478 36.2793 33.4198 35.3039 33.4122 34.192L34.0698 34.171ZM31.6393 32.0739L31.7243 32.7345C30.7226 33.0255 29.7101 33.1472 28.6726 33.1005L28.7261 32.3885C29.7213 32.438 30.6923 32.3331 31.6393 32.0739ZM32.6193 25.5984C32.548 26.6942 32.4366 27.6083 32.2778 28.3341L31.5856 28.2582C31.7558 27.4891 31.8738 26.5674 31.9394 25.4933L32.6193 25.5984ZM30.6891 29.414L31.0055 30.0385C29.666 30.8047 28.3417 31.4779 27.0326 32.058L26.7276 31.3903C28.0931 30.8066 29.4117 30.155 30.6891 29.414ZM37.902 39.3383L37.4529 39.8489C36.4426 39.4533 35.3809 38.9192 34.2462 38.241L34.6408 37.6559C35.8074 38.3887 36.8916 38.9426 37.902 39.3383ZM41.267 32.7096L41.5985 33.3473C40.3571 33.9868 39.2798 34.4245 38.3743 34.6668C38.7668 34.9321 39.166 35.1899 39.5793 35.4468C39.9597 35.3019 40.3542 35.1561 40.7554 35.0028L41.0766 35.5916C39.2773 36.2598 37.9141 36.6591 36.9806 36.797C37.6504 37.1862 38.3457 37.5313 39.0665 37.8322L38.6439 38.3128C37.5885 37.8775 36.6424 37.3785 35.8056 36.8158L36.0921 36.2022C36.2293 36.243 36.3582 36.2631 36.4786 36.2624C37.0215 36.2205 37.8103 36.0352 38.8515 35.699C38.364 35.3902 37.8832 35.0739 37.3948 34.751L37.6954 34.1365C37.811 34.1716 37.9456 34.17 38.099 34.1318C39.127 33.8107 40.1809 33.3392 41.267 32.7096ZM41.7276 34.8058L43.5224 36.3839L44.3214 35.4753L44.8696 35.9573L44.0706 36.866L45.858 38.4376L45.3957 38.9632L43.6084 37.3917L42.6311 38.5031L44.2007 39.8832L43.7384 40.4089L40.0737 37.1865L40.5359 36.6608L42.0829 38.0211L43.0602 36.9096L41.2654 35.3314L41.7276 34.8058ZM42.8603 40.9684L40.2058 43.9873L39.6801 43.5251L39.9971 43.1646L37.8493 41.276L37.5323 41.6365L36.9991 41.1677L39.6537 38.1488L42.8603 40.9684ZM38.2983 40.7654L40.4461 42.6539L41.8856 41.0168L39.7378 39.1282L38.2983 40.7654Z" fill="white"/>
</svg>
