<svg width="65" height="61" viewBox="0 0 65 61" fill="none" xmlns="http://www.w3.org/2000/svg">
<path d="M29.4859 14.8387L37.8669 22.3038L51.4868 34.4359L51.4868 59.8984L1.70379e-06 14.4029L29.4859 14.8387Z" fill="#FE6426"/>
<path d="M27.8023 26.9423L23.0862 22.7954L21.1382 25.0108C20.8477 25.3412 20.8685 25.6658 21.214 25.9696L24.9839 29.2844C25.1641 29.4429 25.3539 29.5299 25.5458 29.5389C25.8149 29.5358 26.3351 29.141 27.1065 28.3545L27.487 28.982C26.593 29.8471 25.9767 30.2906 25.6248 30.3274C25.3209 30.3398 25.0005 30.2045 24.6719 29.9422L20.6016 26.3632C19.9933 25.8283 19.9702 25.2488 20.5117 24.633L23.9784 20.6904L24.5191 21.1658L23.5418 22.2773L27.7098 25.9421L29.4332 23.982L24.4242 19.5776L24.8864 19.052L30.4437 23.9384L27.8023 26.9423ZM35.285 28.0489L38.8446 31.1788L38.3956 31.6895L36.9012 30.3755C36.6127 30.6278 36.3299 30.8585 36.0321 31.0761L37.4364 32.3109L34.3197 35.8555L33.794 35.3933L36.4749 32.3443L34.5299 30.634L31.7961 33.7431L31.2629 33.2742L34.4325 29.6696L35.5064 30.6138C35.8042 30.3963 36.087 30.1656 36.368 29.9066L34.836 28.5595L35.285 28.0489ZM33.3611 35.0526C33.4888 35.9372 33.5273 36.7567 33.4972 37.5026L32.7775 37.5488C32.8394 36.8575 32.8075 36.0306 32.6828 35.082L33.3611 35.0526ZM34.8 31.7504L35.3107 32.1994L34.1749 33.4911C33.4533 34.2814 32.7277 34.7886 32.0122 35.0117C31.3373 35.2039 30.5613 35.1474 29.691 34.8349L29.8084 34.1258C30.6214 34.4279 31.3268 34.4889 31.9105 34.3097C32.4923 34.1022 33.0747 33.6822 33.6642 33.0421L34.8 31.7504ZM33.7606 26.2691L34.1662 26.6257C34.1552 27.668 34.0961 28.7346 33.9891 29.8256L33.2918 29.8916C33.4508 28.7265 33.5378 27.7643 33.5603 27.0118C32.4588 27.4014 31.349 27.664 30.2311 27.7996L30.3062 27.0933C31.4109 26.9727 32.5621 26.6933 33.7606 26.2691ZM29.7636 28.5736L32.4521 30.9376L32.0559 31.3881C31.132 31.7876 30.2292 32.0723 29.3332 32.2432C29.3818 32.7786 29.4078 33.2942 29.4038 33.7834L28.6765 33.823C28.7212 32.8636 28.6336 31.7213 28.4064 30.3896L29.0706 30.3611C29.1477 30.7884 29.2097 31.2025 29.2642 31.61C29.9353 31.4677 30.6574 31.2371 31.4314 30.9323L29.3211 29.0767L29.7636 28.5736ZM32.4854 28.0374C32.4263 28.771 32.3373 29.3719 32.227 29.8608L31.5922 29.7953C31.7214 29.2698 31.816 28.6472 31.8836 27.9343L32.4854 28.0374ZM39.4044 39.674L38.9356 40.2072C38.65 40.0626 38.3784 39.917 38.1069 39.7715L36.9117 41.1308L36.3861 40.6685L37.4756 39.4294C36.5493 38.9079 35.6203 38.344 34.6736 37.7246L35.0081 37.0867C35.2598 37.2547 35.5181 37.4153 35.7698 37.5834L39.8573 32.9348L39.264 32.4132L39.713 31.9025L43.2877 35.0457L42.9311 35.4512L45.8374 38.0067L45.4016 38.5023C44.0147 39.7463 42.626 40.6291 41.2428 41.1573C41.0618 42.09 41.0105 43.057 41.0881 44.044L40.3644 44.1401C40.3169 43.1795 40.3718 42.269 40.5216 41.402C39.5614 41.6762 38.6053 41.7943 37.6525 41.7422L37.6543 40.9981C38.6852 41.0523 39.6902 40.924 40.69 40.6047C41.072 39.0496 41.765 37.5951 42.7693 36.241L42.4689 35.9769L42.8387 35.5563L42.2604 35.0479L38.5758 39.2383C38.8548 39.3904 39.1263 39.536 39.4044 39.674ZM43.2649 36.6768C42.4041 37.8375 41.802 39.0524 41.4442 40.3224C42.6025 39.8229 43.7454 39.0834 44.8645 38.0833L43.2649 36.6768ZM37.9444 38.8962L38.8425 37.8749L37.4907 36.6863L36.3682 37.963C36.8923 38.2907 37.4221 38.5968 37.9444 38.8962ZM37.9199 36.1982L39.2717 37.3868L40.2754 36.2453L38.9236 35.0567L37.9199 36.1982ZM39.3595 34.5611L40.7112 35.7497L41.7347 34.5856L40.383 33.397L39.3595 34.5611Z" fill="white"/>
</svg>
