<svg width="51" height="45" viewBox="0 0 51 45" fill="none" xmlns="http://www.w3.org/2000/svg">
<path d="M51 45L0 0H28.5L51 20V45Z" fill="#D9D9D9"/>
<path d="M27.3733 11.5497L22.1855 6.98811L20.0428 9.42503C19.7232 9.7885 19.7461 10.1456 20.1261 10.4797L24.273 14.126C24.4712 14.3004 24.68 14.3961 24.8911 14.4059C25.1871 14.4025 25.7593 13.9682 26.6079 13.1031L27.0263 13.7933C26.043 14.745 25.3651 15.2328 24.978 15.2733C24.6437 15.2869 24.2912 15.1381 23.9297 14.8496L19.4524 10.9127C18.7833 10.3243 18.7579 9.68682 19.3536 9.00944L23.167 4.67255L23.7617 5.19553L22.6867 6.41812L27.2714 10.4494L29.1672 8.29338L23.6573 3.44854L24.1658 2.87029L30.2787 8.24537L27.3733 11.5497ZM33.9228 10.9809L34.2874 11.6823C33.8211 11.9461 33.3601 12.1706 32.9126 12.363L34.5813 13.8303L35.8524 12.3846L36.4637 12.9221L35.1926 14.3678L37.9599 16.8011L37.4515 17.3793L34.6841 14.946L34.212 15.483C33.8468 15.865 33.4869 16.2076 33.124 16.5037L36.5357 19.5036L36.0345 20.0736L32.9615 17.3715C32.3203 18.917 32.5724 20.7792 33.7178 22.9582L32.9298 23.1881C31.8117 20.8281 31.6108 18.7911 32.3414 17.0606C31.705 17.4678 31.068 17.7426 30.4302 17.8849C29.1992 18.1354 27.75 17.9011 26.0744 17.1748L26.1953 16.3876C27.8617 17.0912 29.257 17.3367 30.3721 17.1014C30.8774 16.9598 31.385 16.7324 31.8794 16.42L28.8064 13.7179L29.3076 13.1479L32.5045 15.959C32.8756 15.6701 33.2355 15.3275 33.6007 14.9455L34.0728 14.4085L32.0985 12.6725C31.3726 12.8984 30.6872 13.0282 30.0415 13.0463L29.9225 12.1654C31.2471 12.1582 32.5778 11.761 33.9228 10.9809ZM40.2104 19.4391L40.4974 20.1455C39.4739 20.5932 38.4871 20.8826 37.5223 21.0303L37.3482 20.262C38.2685 20.1484 39.2253 19.8765 40.2104 19.4391ZM41.032 22.8859C41.0732 22.0727 41.0574 21.341 40.9908 20.6672L41.6666 20.6316C41.7646 21.1865 41.7959 21.9171 41.7689 22.8308L41.032 22.8859ZM38.3905 21.4422C38.4968 22.0043 38.572 22.5685 38.6317 23.1336C39.1558 22.9207 39.6769 22.6612 40.1868 22.3478L40.5101 23.013C39.9111 23.3944 39.2998 23.7064 38.699 23.9399C38.7482 24.5836 38.7735 25.2211 38.7678 25.8606L37.9325 25.961C37.9475 25.3443 37.9334 24.7607 37.914 24.2163C36.719 24.5425 35.5299 24.5955 34.3374 24.3525L34.4388 23.5042C35.5775 23.7584 36.721 23.724 37.8694 23.4008C37.8275 22.7488 37.7483 22.1225 37.6483 21.5366L38.3905 21.4422ZM42.6843 18.2747C42.5613 18.6645 42.4164 19.0791 42.2353 19.5351L43.7883 20.9006L43.2871 21.4706L39.4624 18.1075L39.9636 17.5376L41.657 19.0266C41.7946 18.6203 41.9011 18.2159 41.9776 17.8291L42.6843 18.2747ZM43.9635 22.9003C43.7231 23.0404 43.4909 23.1878 43.265 23.3115C42.7224 24.3284 42.332 25.2888 42.0939 26.1926C43.2023 25.7317 44.2388 25.0026 45.1943 23.9825L43.9635 22.9003ZM41.2778 26.471C41.4951 25.6075 41.8202 24.7215 42.2528 23.8129C41.8426 23.9796 41.445 24.0987 41.0619 24.2012L41.0814 23.4127C42.4586 23.0125 43.9302 22.1386 45.4867 20.7681L45.9943 21.3903C45.5215 21.7947 45.0684 22.1434 44.6289 22.46L46.9502 24.5011L46.4417 25.0794L45.7396 24.4619C44.5351 25.7318 43.2581 26.6011 41.8931 27.0706C41.6957 28.2447 41.75 29.3324 42.0549 30.3182L41.2504 30.5336C40.9599 29.5312 40.9139 28.4507 41.1051 27.3005C39.96 27.5533 38.7596 27.5525 37.5195 27.297L37.6529 26.4622C38.9353 26.7696 40.144 26.7777 41.2778 26.471Z" fill="white"/>
</svg>
