<svg width="65" height="61" viewBox="0 0 65 61" fill="none" xmlns="http://www.w3.org/2000/svg">
<path d="M29.4859 14.8387L37.8669 22.3038L51.4868 34.4359L51.4868 59.8984L1.70379e-06 14.4029L29.4859 14.8387Z" fill="#D9D9D9"/>
<path d="M27.8023 26.9423L23.0862 22.7954L21.1382 25.0108C20.8477 25.3412 20.8685 25.6658 21.214 25.9696L24.9839 29.2844C25.1641 29.4429 25.3539 29.5299 25.5458 29.5389C25.8149 29.5358 26.3351 29.141 27.1065 28.3545L27.487 28.982C26.593 29.8471 25.9767 30.2906 25.6248 30.3274C25.3209 30.3398 25.0005 30.2045 24.6719 29.9422L20.6016 26.3632C19.9933 25.8283 19.9702 25.2488 20.5117 24.633L23.9784 20.6904L24.5191 21.1658L23.5418 22.2773L27.7098 25.9421L29.4332 23.982L24.4242 19.5776L24.8864 19.052L30.4437 23.9384L27.8023 26.9423ZM33.7565 26.4252L34.088 27.0629C33.6641 27.3027 33.2449 27.5068 32.8381 27.6817L34.3551 29.0156L35.5107 27.7014L36.0664 28.19L34.9108 29.5042L37.4266 31.7163L36.9644 32.242L34.4486 30.0299L34.0194 30.518C33.6874 30.8653 33.3602 31.1768 33.0303 31.446L36.1318 34.1732L35.6762 34.6913L32.8826 32.2349C32.2997 33.6399 32.5289 35.3328 33.5701 37.3137L32.8537 37.5227C31.8373 35.3772 31.6546 33.5254 32.3188 31.9523C31.7403 32.3225 31.1612 32.5722 30.5814 32.7016C29.4623 32.9293 28.1449 32.7164 26.6216 32.056L26.7315 31.3404C28.2464 31.98 29.5149 32.2032 30.5285 31.9893C30.9879 31.8606 31.4494 31.6538 31.8988 31.3699L29.1052 28.9135L29.5608 28.3953L32.4671 30.9508C32.8045 30.6882 33.1317 30.3767 33.4637 30.0294L33.8929 29.5413L32.098 27.9631C31.4381 28.1684 30.815 28.2864 30.228 28.3028L30.1199 27.502C31.324 27.4955 32.5337 27.1344 33.7565 26.4252ZM39.4725 34.1145L39.7334 34.7567C38.803 35.1637 37.9058 35.4268 37.0287 35.561L36.8705 34.8626C37.7071 34.7593 38.5769 34.5121 39.4725 34.1145ZM40.2193 37.248C40.2569 36.5087 40.2425 35.8435 40.1819 35.231L40.7963 35.1986C40.8854 35.703 40.9138 36.3673 40.8893 37.1979L40.2193 37.248ZM37.818 35.9355C37.9146 36.4465 37.983 36.9594 38.0373 37.4732C38.5137 37.2796 38.9875 37.0437 39.451 36.7588L39.7449 37.3635C39.2004 37.7102 38.6446 37.9939 38.0985 38.2061C38.1432 38.7914 38.1662 39.3709 38.1611 39.9523L37.4017 40.0435C37.4153 39.4829 37.4024 38.9523 37.3848 38.4574C36.2985 38.754 35.2175 38.8021 34.1334 38.5813L34.2256 37.8101C35.2607 38.0412 36.3003 38.0098 37.3443 37.7161C37.3062 37.1233 37.2342 36.554 37.1433 36.0213L37.818 35.9355ZM41.7215 33.056C41.6096 33.4104 41.478 33.7873 41.3133 34.2017L42.7251 35.4432L42.2695 35.9613L38.7925 32.904L39.2481 32.3858L40.7876 33.7395C40.9127 33.3701 41.0095 33.0025 41.079 32.6509L41.7215 33.056ZM42.8844 37.261C42.6658 37.3884 42.4548 37.5224 42.2494 37.6348C41.7561 38.5593 41.4012 39.4324 41.1847 40.254C42.1923 39.835 43.1347 39.1722 44.0033 38.2449L42.8844 37.261ZM40.4428 40.5072C40.6404 39.7222 40.9359 38.9167 41.3292 38.0907C40.9563 38.2422 40.5948 38.3505 40.2465 38.4437L40.2643 37.7269C41.5163 37.3631 42.8541 36.5686 44.2691 35.3227L44.7306 35.8883C44.3007 36.256 43.8889 36.573 43.4893 36.8608L45.5995 38.7163L45.1373 39.242L44.499 38.6807C43.404 39.8352 42.2431 40.6254 41.0022 41.0523C40.8227 42.1196 40.8721 43.1084 41.1493 44.0046L40.4179 44.2004C40.1539 43.2891 40.112 42.3069 40.2858 41.2613C39.2448 41.4911 38.1536 41.4903 37.0262 41.258L37.1475 40.4992C38.3133 40.7786 39.4121 40.786 40.4428 40.5072Z" fill="white"/>
</svg>
