<svg width="22" height="22" viewBox="0 0 22 22" fill="none" xmlns="http://www.w3.org/2000/svg">
<path d="M11 20.4286C9.72642 20.4286 8.49258 20.1797 7.33023 19.6872C6.20759 19.2132 5.1988 18.5328 4.333 17.667C3.46719 16.8012 2.78672 15.7924 2.31278 14.6697C1.8203 13.5074 1.57141 12.2709 1.57141 11C1.57141 9.72907 1.8203 8.49258 2.31278 7.33023C2.78672 6.20759 3.46719 5.1988 4.333 4.33299C5.1988 3.46719 6.20759 2.78672 7.33023 2.31278C8.49258 1.8203 9.72907 1.57141 11 1.57141C12.2709 1.57141 13.5074 1.8203 14.6697 2.31278C15.7924 2.78672 16.8012 3.46719 17.667 4.33299C18.5328 5.1988 19.2132 6.20759 19.6872 7.33023C20.1797 8.49258 20.4286 9.72907 20.4286 11C20.4286 12.2709 20.1797 13.5074 19.6872 14.6697C19.2132 15.7924 18.5328 16.8012 17.667 17.667C16.8012 18.5328 15.7924 19.2132 14.6697 19.6872C13.5074 20.1797 12.2735 20.4286 11 20.4286ZM11 3.16005C8.90563 3.16005 6.93836 3.97555 5.45563 5.45563C3.9729 6.93571 3.16005 8.90563 3.16005 11C3.16005 13.0943 3.97555 15.0616 5.45563 16.5443C6.93571 18.0271 8.90563 18.8399 11 18.8399C13.0943 18.8399 15.0616 18.0244 16.5443 16.5443C18.0271 15.0642 18.8399 13.0943 18.8399 11C18.8399 8.90563 18.0244 6.93836 16.5443 5.45563C15.0643 3.9729 13.0943 3.16005 11 3.16005Z" fill="black"/>
<path d="M10.2143 12.5714C9.77954 12.5714 9.42859 12.1997 9.42859 11.7392V6.33226C9.42859 5.87174 9.77954 5.5 10.2143 5.5C10.6491 5.5 11 5.87174 11 6.33226V11.7392C11 12.1997 10.6491 12.5714 10.2143 12.5714Z" fill="black"/>
<path d="M14.8368 12.5714H10.3061C9.82053 12.5714 9.42859 12.2205 9.42859 11.7857C9.42859 11.351 9.82053 11 10.3061 11H14.8368C15.3224 11 15.7143 11.351 15.7143 11.7857C15.7143 12.2205 15.3224 12.5714 14.8368 12.5714Z" fill="black"/>
</svg>
